<?xml version="1.0" encoding="UTF-8" standalone="no"?><!DOCTYPE svg PUBLIC "-//W3C//DTD SVG 1.1//EN" "http://www.w3.org/Graphics/SVG/1.1/DTD/svg11.dtd"><svg width="100%" height="100%" viewBox="0 0 2646 2669" version="1.1" xmlns="http://www.w3.org/2000/svg" xmlns:xlink="http://www.w3.org/1999/xlink" xml:space="preserve" xmlns:serif="http://www.serif.com/" style="fill-rule:evenodd;clip-rule:evenodd;stroke-linejoin:round;stroke-miterlimit:1.5;"><path d="M982.248,72.486c-4.78,0.6 -9.349,3.017 -12.528,7.127l-23.071,29.721c-6.376,8.182 -4.913,20.001 3.306,26.377c3.424,2.671 7.511,3.968 11.536,3.968c5.605,-0 11.136,-2.478 14.842,-7.274l23.108,-29.721c6.376,-8.182 4.876,-20.001 -3.343,-26.377c-4.091,-3.179 -9.07,-4.42 -13.85,-3.821Zm-380.343,9.552c-290.652,-0 -526.667,236.014 -526.667,526.667c0,290.653 236.015,526.667 526.667,526.667c290.653,0 526.668,-236.014 526.668,-526.667c-0,-290.653 -236.015,-526.667 -526.668,-526.667Zm0,37.619c270.323,-0 489.049,218.725 489.049,489.048c-0,270.323 -218.726,489.048 -489.049,489.048c-270.323,0 -489.048,-218.725 -489.048,-489.048c0,-270.323 218.725,-489.048 489.048,-489.048Zm454.368,15.871c-4.81,-0 -9.621,1.833 -13.298,5.51l-26.598,26.598c-7.355,7.355 -7.355,19.243 -0,26.598c3.668,3.668 8.483,5.51 13.299,5.51c4.815,0 9.612,-1.842 13.299,-5.51l26.597,-26.598c7.355,-7.355 7.355,-19.243 0,-26.598c-3.677,-3.677 -8.488,-5.51 -13.299,-5.51Zm65.54,71.858c-4.778,-0.602 -9.786,0.596 -13.887,3.784l-29.72,23.108c-8.201,6.376 -9.701,18.157 -3.343,26.377c3.724,4.778 9.273,7.274 14.878,7.274c4.025,0 8.112,-1.279 11.536,-3.931l29.72,-23.108c8.201,-6.376 9.664,-18.157 3.307,-26.377c-3.179,-4.11 -7.713,-6.525 -12.491,-7.127Zm-519.908,43.938c-197.151,-0 -357.381,160.23 -357.381,357.381c0,197.152 160.23,357.381 357.381,357.381c197.152,0 357.382,-160.229 357.382,-357.381c-0,-197.151 -160.23,-357.381 -357.382,-357.381Zm0,37.619c176.82,-0 319.763,142.942 319.763,319.762c-0,176.82 -142.943,319.762 -319.763,319.762c-176.82,0 -319.762,-142.942 -319.762,-319.762c0,-176.82 142.942,-319.762 319.762,-319.762Zm0,131.667c-103.659,-0 -188.095,84.436 -188.095,188.095c-0,103.66 84.436,188.096 188.095,188.096c103.66,-0 188.096,-84.436 188.096,-188.096c-0,-103.659 -84.436,-188.095 -188.096,-188.095Zm0,37.619c83.329,-0 150.477,67.148 150.477,150.476c-0,83.329 -67.148,150.476 -150.477,150.476c-83.328,0 -150.476,-67.147 -150.476,-150.476c0,-83.328 67.148,-150.476 150.476,-150.476Zm-485.484,491.73c-4.778,-0.6 -9.786,0.605 -13.887,3.784l-29.72,23.071c-8.201,6.376 -9.664,18.194 -3.307,26.414c3.724,4.778 9.274,7.274 14.879,7.274c4.025,-0 8.094,-1.297 11.499,-3.968l29.72,-23.071c8.201,-6.376 9.701,-18.157 3.343,-26.377c-3.179,-4.11 -7.75,-6.528 -12.527,-7.127Zm57.714,68.037c-4.81,0 -9.621,1.834 -13.299,5.511l-26.598,26.598c-7.354,7.354 -7.354,19.243 0,26.598c3.668,3.668 8.484,5.51 13.299,5.51c4.816,0 9.631,-1.842 13.299,-5.51l26.598,-26.598c7.355,-7.355 7.355,-19.243 0,-26.598c-3.677,-3.677 -8.488,-5.511 -13.299,-5.511Zm65.834,60.176c-4.776,0.602 -9.34,3.054 -12.528,7.164l-23.071,29.721c-6.358,8.201 -4.858,20.001 3.343,26.377c3.442,2.671 7.474,3.931 11.499,3.931c5.624,-0 11.192,-2.496 14.879,-7.274l23.071,-29.721c6.357,-8.201 4.858,-20.001 -3.343,-26.377c-4.101,-3.188 -9.075,-4.423 -13.85,-3.821Z" style="fill:#409;fill-rule:nonzero;"/><path d="M2186.06,72.486c-4.78,0.6 -9.348,3.017 -12.527,7.127l-23.071,29.721c-6.377,8.182 -4.914,20.001 3.306,26.377c3.424,2.671 7.511,3.968 11.536,3.968c5.605,-0 11.136,-2.478 14.842,-7.274l23.108,-29.721c6.376,-8.182 4.876,-20.001 -3.344,-26.377c-4.091,-3.179 -9.07,-4.42 -13.85,-3.821Zm-380.342,9.552c-290.653,-0 -526.667,236.014 -526.667,526.667c-0,290.653 236.014,526.667 526.667,526.667c290.653,0 526.667,-236.014 526.667,-526.667c0,-290.653 -236.014,-526.667 -526.667,-526.667Zm0,37.619c270.323,-0 489.048,218.725 489.048,489.048c0,270.323 -218.725,489.048 -489.048,489.048c-270.323,0 -489.048,-218.725 -489.048,-489.048c0,-270.323 218.725,-489.048 489.048,-489.048Zm454.368,15.871c-4.81,-0 -9.621,1.833 -13.299,5.51l-26.598,26.598c-7.354,7.355 -7.354,19.243 0,26.598c3.668,3.668 8.484,5.51 13.299,5.51c4.816,0 9.613,-1.842 13.299,-5.51l26.598,-26.598c7.355,-7.355 7.355,-19.243 0,-26.598c-3.677,-3.677 -8.488,-5.51 -13.299,-5.51Zm65.54,71.858c-4.778,-0.602 -9.786,0.596 -13.887,3.784l-29.72,23.108c-8.201,6.376 -9.701,18.157 -3.344,26.377c3.725,4.778 9.274,7.274 14.879,7.274c4.025,0 8.112,-1.279 11.536,-3.931l29.72,-23.108c8.201,-6.376 9.664,-18.157 3.307,-26.377c-3.179,-4.11 -7.714,-6.525 -12.491,-7.127Zm-519.908,43.938c-197.151,-0 -357.381,160.23 -357.381,357.381c-0,197.152 160.23,357.381 357.381,357.381c197.152,0 357.382,-160.229 357.382,-357.381c-0,-197.151 -160.23,-357.381 -357.382,-357.381Zm0,37.619c176.82,-0 319.762,142.942 319.762,319.762c0,176.82 -142.942,319.762 -319.762,319.762c-176.82,0 -319.762,-142.942 -319.762,-319.762c-0,-176.82 142.942,-319.762 319.762,-319.762Zm0,131.667c-103.659,-0 -188.095,84.436 -188.095,188.095c-0,103.66 84.436,188.096 188.095,188.096c103.66,-0 188.096,-84.436 188.096,-188.096c-0,-103.659 -84.436,-188.095 -188.096,-188.095Zm0,37.619c83.329,-0 150.477,67.148 150.477,150.476c-0,83.329 -67.148,150.476 -150.477,150.476c-83.328,0 -150.476,-67.147 -150.476,-150.476c-0,-83.328 67.148,-150.476 150.476,-150.476Zm-485.484,491.73c-4.778,-0.6 -9.787,0.605 -13.887,3.784l-29.721,23.071c-8.201,6.376 -9.664,18.194 -3.306,26.414c3.724,4.778 9.273,7.274 14.879,7.274c4.025,-0 8.094,-1.297 11.498,-3.968l29.721,-23.071c8.201,-6.376 9.701,-18.157 3.343,-26.377c-3.179,-4.11 -7.75,-6.528 -12.527,-7.127Zm57.714,68.037c-4.81,0 -9.622,1.834 -13.299,5.511l-26.598,26.598c-7.354,7.354 -7.354,19.243 0,26.598c3.668,3.668 8.484,5.51 13.299,5.51c4.815,0 9.631,-1.842 13.299,-5.51l26.598,-26.598c7.355,-7.355 7.355,-19.243 -0,-26.598c-3.677,-3.677 -8.488,-5.511 -13.299,-5.511Zm65.833,60.176c-4.775,0.602 -9.339,3.054 -12.527,7.164l-23.071,29.721c-6.358,8.201 -4.858,20.001 3.343,26.377c3.442,2.671 7.474,3.931 11.499,3.931c5.624,-0 11.192,-2.496 14.878,-7.274l23.072,-29.721c6.357,-8.201 4.857,-20.001 -3.344,-26.377c-4.1,-3.188 -9.074,-4.423 -13.85,-3.821Z" style="fill:#409;fill-rule:nonzero;"/><path d="M982.248,1438.64c-4.78,0.599 -9.349,3.017 -12.528,7.127l-23.071,29.72c-6.376,8.182 -4.913,20.001 3.306,26.378c3.424,2.671 7.511,3.967 11.536,3.967c5.605,0 11.136,-2.477 14.842,-7.274l23.108,-29.72c6.376,-8.182 4.876,-20.001 -3.343,-26.378c-4.091,-3.178 -9.07,-4.42 -13.85,-3.82Zm-380.343,9.551c-290.652,0 -526.667,236.015 -526.667,526.668c0,290.653 236.015,526.667 526.667,526.667c290.653,-0 526.668,-236.014 526.668,-526.667c-0,-290.653 -236.015,-526.668 -526.668,-526.668Zm0,37.619c270.323,0 489.049,218.726 489.049,489.049c-0,270.323 -218.726,489.048 -489.049,489.048c-270.323,-0 -489.048,-218.725 -489.048,-489.048c0,-270.323 218.725,-489.049 489.048,-489.049Zm454.368,15.871c-4.81,0 -9.621,1.833 -13.298,5.511l-26.598,26.598c-7.355,7.354 -7.355,19.243 -0,26.597c3.668,3.668 8.483,5.511 13.299,5.511c4.815,-0 9.612,-1.843 13.299,-5.511l26.597,-26.597c7.355,-7.355 7.355,-19.244 0,-26.598c-3.677,-3.678 -8.488,-5.511 -13.299,-5.511Zm65.54,71.858c-4.778,-0.602 -9.786,0.596 -13.887,3.784l-29.72,23.108c-8.201,6.377 -9.701,18.158 -3.343,26.378c3.724,4.777 9.273,7.274 14.878,7.274c4.025,-0 8.112,-1.279 11.536,-3.931l29.72,-23.108c8.201,-6.377 9.664,-18.158 3.307,-26.378c-3.179,-4.109 -7.713,-6.525 -12.491,-7.127Zm-519.908,43.938c-197.151,0 -357.381,160.23 -357.381,357.382c0,197.151 160.23,357.381 357.381,357.381c197.152,-0 357.382,-160.23 357.382,-357.381c-0,-197.152 -160.23,-357.382 -357.382,-357.382Zm0,37.619c176.82,0 319.763,142.943 319.763,319.763c-0,176.82 -142.943,319.762 -319.763,319.762c-176.82,-0 -319.762,-142.942 -319.762,-319.762c0,-176.82 142.942,-319.763 319.762,-319.763Zm0,131.667c-103.659,0 -188.095,84.436 -188.095,188.096c-0,103.659 84.436,188.095 188.095,188.095c103.66,0 188.096,-84.436 188.096,-188.095c-0,-103.66 -84.436,-188.096 -188.096,-188.096Zm0,37.619c83.329,0 150.477,67.148 150.477,150.477c-0,83.328 -67.148,150.476 -150.477,150.476c-83.328,-0 -150.476,-67.148 -150.476,-150.476c0,-83.329 67.148,-150.477 150.476,-150.477Zm-485.484,491.73c-4.778,-0.599 -9.786,0.605 -13.887,3.784l-29.72,23.071c-8.201,6.377 -9.664,18.195 -3.307,26.414c3.724,4.778 9.274,7.274 14.879,7.274c4.025,0 8.094,-1.296 11.499,-3.967l29.72,-23.071c8.201,-6.377 9.701,-18.158 3.343,-26.378c-3.179,-4.11 -7.75,-6.527 -12.527,-7.127Zm57.714,68.038c-4.81,-0 -9.621,1.833 -13.299,5.511l-26.598,26.597c-7.354,7.355 -7.354,19.244 0,26.598c3.668,3.668 8.484,5.511 13.299,5.511c4.816,-0 9.631,-1.843 13.299,-5.511l26.598,-26.598c7.355,-7.354 7.355,-19.243 0,-26.597c-3.677,-3.678 -8.488,-5.511 -13.299,-5.511Zm65.834,60.176c-4.776,0.602 -9.34,3.054 -12.528,7.164l-23.071,29.72c-6.358,8.201 -4.858,20.001 3.343,26.378c3.442,2.67 7.474,3.93 11.499,3.93c5.624,0 11.192,-2.496 14.879,-7.274l23.071,-29.72c6.357,-8.201 4.858,-20.001 -3.343,-26.378c-4.101,-3.188 -9.075,-4.422 -13.85,-3.82Z" style="fill:#409;fill-rule:nonzero;"/><path d="M2186.06,1438.64c-4.78,0.599 -9.348,3.017 -12.527,7.127l-23.071,29.72c-6.377,8.182 -4.914,20.001 3.306,26.378c3.424,2.671 7.511,3.967 11.536,3.967c5.605,0 11.136,-2.477 14.842,-7.274l23.108,-29.72c6.376,-8.182 4.876,-20.001 -3.344,-26.378c-4.091,-3.178 -9.07,-4.42 -13.85,-3.82Zm-380.342,9.551c-290.653,0 -526.667,236.015 -526.667,526.668c-0,290.653 236.014,526.667 526.667,526.667c290.653,-0 526.667,-236.014 526.667,-526.667c0,-290.653 -236.014,-526.668 -526.667,-526.668Zm0,37.619c270.323,0 489.048,218.726 489.048,489.049c0,270.323 -218.725,489.048 -489.048,489.048c-270.323,-0 -489.048,-218.725 -489.048,-489.048c0,-270.323 218.725,-489.049 489.048,-489.049Zm454.368,15.871c-4.81,0 -9.621,1.833 -13.299,5.511l-26.598,26.598c-7.354,7.354 -7.354,19.243 0,26.597c3.668,3.668 8.484,5.511 13.299,5.511c4.816,-0 9.613,-1.843 13.299,-5.511l26.598,-26.597c7.355,-7.355 7.355,-19.244 0,-26.598c-3.677,-3.678 -8.488,-5.511 -13.299,-5.511Zm65.54,71.858c-4.778,-0.602 -9.786,0.596 -13.887,3.784l-29.72,23.108c-8.201,6.377 -9.701,18.158 -3.344,26.378c3.725,4.777 9.274,7.274 14.879,7.274c4.025,-0 8.112,-1.279 11.536,-3.931l29.72,-23.108c8.201,-6.377 9.664,-18.158 3.307,-26.378c-3.179,-4.109 -7.714,-6.525 -12.491,-7.127Zm-519.908,43.938c-197.151,0 -357.381,160.23 -357.381,357.382c-0,197.151 160.23,357.381 357.381,357.381c197.152,-0 357.382,-160.23 357.382,-357.381c-0,-197.152 -160.23,-357.382 -357.382,-357.382Zm0,37.619c176.82,0 319.762,142.943 319.762,319.763c0,176.82 -142.942,319.762 -319.762,319.762c-176.82,-0 -319.762,-142.942 -319.762,-319.762c-0,-176.82 142.942,-319.763 319.762,-319.763Zm0,131.667c-103.659,0 -188.095,84.436 -188.095,188.096c-0,103.659 84.436,188.095 188.095,188.095c103.66,0 188.096,-84.436 188.096,-188.095c-0,-103.66 -84.436,-188.096 -188.096,-188.096Zm0,37.619c83.329,0 150.477,67.148 150.477,150.477c-0,83.328 -67.148,150.476 -150.477,150.476c-83.328,-0 -150.476,-67.148 -150.476,-150.476c-0,-83.329 67.148,-150.477 150.476,-150.477Zm-485.484,491.73c-4.778,-0.599 -9.787,0.605 -13.887,3.784l-29.721,23.071c-8.201,6.377 -9.664,18.195 -3.306,26.414c3.724,4.778 9.273,7.274 14.879,7.274c4.025,0 8.094,-1.296 11.498,-3.967l29.721,-23.071c8.201,-6.377 9.701,-18.158 3.343,-26.378c-3.179,-4.11 -7.75,-6.527 -12.527,-7.127Zm57.714,68.038c-4.81,-0 -9.622,1.833 -13.299,5.511l-26.598,26.597c-7.354,7.355 -7.354,19.244 0,26.598c3.668,3.668 8.484,5.511 13.299,5.511c4.815,-0 9.631,-1.843 13.299,-5.511l26.598,-26.598c7.355,-7.354 7.355,-19.243 -0,-26.597c-3.677,-3.678 -8.488,-5.511 -13.299,-5.511Zm65.833,60.176c-4.775,0.602 -9.339,3.054 -12.527,7.164l-23.071,29.72c-6.358,8.201 -4.858,20.001 3.343,26.378c3.442,2.67 7.474,3.93 11.499,3.93c5.624,0 11.192,-2.496 14.878,-7.274l23.072,-29.72c6.357,-8.201 4.857,-20.001 -3.344,-26.378c-4.1,-3.188 -9.074,-4.422 -13.85,-3.82Z" style="fill:#409;fill-rule:nonzero;"/><path d="M582.913,677.829l-7.517,-5.454l10.923,-15.012l-17.674,-5.734l2.871,-8.824l17.674,5.734l0,-18.556l9.292,-0l-0,18.556l17.674,-5.734l2.871,8.824l-17.674,5.734l10.923,15.012l-7.517,5.454l-10.923,-15.012l-10.923,15.012Z" style="fill:#409;"/><path d="M608.171,631.069l-7.517,-5.454l10.923,-15.012l-17.674,-5.734l2.871,-8.824l17.674,5.734l0,-18.556l9.292,-0l-0,18.556l17.674,-5.734l2.871,8.824l-17.674,5.734l10.923,15.012l-7.517,5.454l-10.923,-15.012l-10.923,15.012Z" style="fill:#409;"/><path d="M594.463,591.862l-7.517,-5.454l10.923,-15.012l-17.674,-5.734l2.872,-8.824l17.674,5.734l-0,-18.556l9.291,0l0,18.556l17.674,-5.734l2.872,8.824l-17.674,5.734l10.923,15.012l-7.517,5.454l-10.923,-15.012l-10.924,15.012Z" style="fill:#409;"/><path d="M557.021,633.984l-7.517,-5.454l10.923,-15.012l-17.674,-5.734l2.871,-8.824l17.674,5.734l0,-18.556l9.292,0l-0,18.556l17.674,-5.734l2.871,8.824l-17.674,5.734l10.923,15.012l-7.517,5.454l-10.923,-15.012l-10.923,15.012Z" style="fill:#409;"/><path d="M634.663,656.499l-7.518,-5.454l10.923,-15.012l-17.673,-5.734l2.871,-8.824l17.674,5.734l-0,-18.556l9.292,0l-0,18.556l17.674,-5.734l2.871,8.824l-17.674,5.734l10.923,15.012l-7.517,5.454l-10.923,-15.012l-10.923,15.012Z" style="fill:#409;"/><path d="M1953.48,857.507l-7.517,-5.453l10.923,-15.012l-17.674,-5.735l2.871,-8.823l17.674,5.734l0,-18.556l9.292,-0l-0,18.556l17.674,-5.734l2.871,8.823l-17.674,5.735l10.923,15.012l-7.517,5.453l-10.923,-15.012l-10.923,15.012Z" style="fill:#409;"/><path d="M2023.8,764.768l-7.517,-5.454l10.923,-15.012l-17.674,-5.734l2.872,-8.824l17.674,5.734l-0,-18.556l9.291,0l0,18.556l17.674,-5.734l2.872,8.824l-17.674,5.734l10.923,15.012l-7.517,5.454l-10.923,-15.012l-10.924,15.012Z" style="fill:#409;"/><path d="M1978.71,764.874l-7.517,-5.453l10.923,-15.012l-17.674,-5.735l2.872,-8.823l17.674,5.734l-0,-18.556l9.291,-0l0,18.556l17.674,-5.734l2.872,8.823l-17.674,5.735l10.923,15.012l-7.517,5.453l-10.924,-15.012l-10.923,15.012Z" style="fill:#409;"/><path d="M1942.8,802.22l-7.517,-5.454l10.923,-15.012l-17.674,-5.734l2.872,-8.824l17.674,5.734l-0,-18.556l9.291,0l0,18.556l17.674,-5.734l2.872,8.824l-17.674,5.734l10.923,15.012l-7.517,5.454l-10.924,-15.012l-10.923,15.012Z" style="fill:#409;"/><path d="M2003.84,813.616l-7.517,-5.454l10.923,-15.012l-17.674,-5.734l2.871,-8.824l17.674,5.734l0,-18.556l9.292,0l-0,18.556l17.674,-5.734l2.871,8.824l-17.674,5.734l10.923,15.012l-7.517,5.454l-10.923,-15.012l-10.923,15.012Z" style="fill:#409;"/><path d="M547.332,2246.36l-7.518,-5.453l10.924,-15.013l-17.674,-5.734l2.871,-8.824l17.674,5.734l-0,-18.556l9.292,0l-0,18.556l17.674,-5.734l2.871,8.824l-17.674,5.734l10.923,15.013l-7.517,5.453l-10.923,-15.012l-10.923,15.012Z" style="fill:#409;"/><path d="M821.091,1627.93l-7.518,-5.453l10.924,-15.012l-17.674,-5.735l2.871,-8.824l17.674,5.735l-0,-18.556l9.292,-0l-0,18.556l17.674,-5.735l2.871,8.824l-17.674,5.735l10.923,15.012l-7.517,5.453l-10.923,-15.012l-10.923,15.012Z" style="fill:#409;"/><path d="M875.227,2336.08l-7.517,-5.454l10.923,-15.012l-17.674,-5.734l2.871,-8.824l17.674,5.734l0,-18.556l9.292,0l0,18.556l17.674,-5.734l2.871,8.824l-17.674,5.734l10.924,15.012l-7.518,5.454l-10.923,-15.012l-10.923,15.012Z" style="fill:#409;"/><path d="M277.176,2287.01l-7.517,-5.453l10.923,-15.012l-17.674,-5.735l2.871,-8.824l17.674,5.735l-0,-18.556l9.292,-0l-0,18.556l17.674,-5.735l2.871,8.824l-17.674,5.735l10.923,15.012l-7.517,5.453l-10.923,-15.012l-10.923,15.012Z" style="fill:#409;"/><path d="M535.492,1702.76l-7.517,-5.453l10.923,-15.013l-17.674,-5.734l2.871,-8.824l17.674,5.734l0,-18.556l9.292,0l0,18.556l17.674,-5.734l2.871,8.824l-17.674,5.734l10.924,15.013l-7.518,5.453l-10.923,-15.012l-10.923,15.012Z" style="fill:#409;"/><path d="M727.094,1784.93l-7.517,-5.454l10.923,-15.012l-17.674,-5.734l2.871,-8.824l17.674,5.734l0,-18.556l9.292,0l-0,18.556l17.674,-5.734l2.871,8.824l-17.674,5.734l10.923,15.012l-7.517,5.454l-10.923,-15.012l-10.923,15.012Z" style="fill:#409;"/><path d="M310.586,1721.86l-7.517,-5.453l10.923,-15.013l-17.674,-5.734l2.871,-8.824l17.674,5.735l0,-18.557l9.292,0l0,18.557l17.674,-5.735l2.871,8.824l-17.674,5.734l10.924,15.013l-7.518,5.453l-10.923,-15.012l-10.923,15.012Z" style="fill:#409;"/><path d="M211.079,2079.67l-7.517,-5.454l10.923,-15.012l-17.674,-5.734l2.871,-8.824l17.674,5.734l0,-18.556l9.292,0l-0,18.556l17.674,-5.734l2.871,8.824l-17.674,5.734l10.923,15.012l-7.517,5.454l-10.923,-15.012l-10.923,15.012Z" style="fill:#409;"/><path d="M858.879,2089.68l-7.517,-5.454l10.923,-15.012l-17.674,-5.734l2.872,-8.824l17.674,5.734l-0,-18.556l9.291,-0l0,18.556l17.674,-5.734l2.872,8.824l-17.674,5.734l10.923,15.012l-7.517,5.454l-10.924,-15.013l-10.923,15.013Z" style="fill:#409;"/><path d="M1491.89,2292.03l-7.517,-5.454l10.923,-15.012l-17.674,-5.734l2.871,-8.824l17.674,5.734l0,-18.556l9.292,-0l-0,18.556l17.674,-5.734l2.871,8.824l-17.674,5.734l10.923,15.012l-7.517,5.454l-10.923,-15.013l-10.923,15.013Z" style="fill:#409;"/><path d="M1661.48,2403.39l-7.517,-5.454l10.923,-15.012l-17.674,-5.734l2.871,-8.824l17.674,5.734l0,-18.556l9.292,0l-0,18.556l17.674,-5.734l2.871,8.824l-17.674,5.734l10.923,15.012l-7.517,5.454l-10.923,-15.012l-10.923,15.012Z" style="fill:#409;"/><path d="M2167.83,2161.67l-7.517,-5.453l10.923,-15.012l-17.674,-5.734l2.872,-8.824l17.674,5.734l-0,-18.556l9.291,-0l0,18.556l17.674,-5.734l2.872,8.824l-17.674,5.734l10.923,15.012l-7.517,5.453l-10.924,-15.012l-10.923,15.012Z" style="fill:#409;"/><path d="M1775.7,2210.69l-7.517,-5.453l10.923,-15.013l-17.674,-5.734l2.871,-8.824l17.674,5.735l0,-18.557l9.292,0l-0,18.557l17.674,-5.735l2.871,8.824l-17.674,5.734l10.923,15.013l-7.517,5.453l-10.923,-15.012l-10.923,15.012Z" style="fill:#409;"/><path d="M1593.87,2133.88l-7.518,-5.453l10.923,-15.013l-17.674,-5.734l2.872,-8.824l17.674,5.734l-0,-18.556l9.292,0l-0,18.556l17.673,-5.734l2.872,8.824l-17.674,5.734l10.923,15.013l-7.517,5.453l-10.923,-15.012l-10.923,15.012Z" style="fill:#409;"/><path d="M2000.11,2186.45l-7.517,-5.453l10.923,-15.012l-17.674,-5.734l2.871,-8.824l17.674,5.734l0,-18.556l9.292,-0l0,18.556l17.674,-5.734l2.871,8.824l-17.674,5.734l10.923,15.012l-7.517,5.453l-10.923,-15.012l-10.923,15.012Z" style="fill:#409;"/><path d="M2069.38,2345.27l-7.517,-5.454l10.923,-15.012l-17.674,-5.734l2.871,-8.824l17.674,5.734l0,-18.556l9.292,-0l-0,18.556l17.674,-5.734l2.871,8.824l-17.674,5.734l10.923,15.012l-7.517,5.454l-10.923,-15.013l-10.923,15.013Z" style="fill:#409;"/><path d="M1874.8,2408.72l-7.517,-5.454l10.923,-15.012l-17.674,-5.734l2.872,-8.824l17.674,5.734l-0,-18.556l9.291,-0l0,18.556l17.674,-5.734l2.872,8.824l-17.674,5.734l10.923,15.012l-7.517,5.454l-10.923,-15.013l-10.924,15.013Z" style="fill:#409;"/><text x="340.08px" y="1277.25px" style="font-family:'SourceSans3-Roman_Medium', 'Source Sans 3', sans-serif;font-weight:200;font-size:75px;fill:#409;">unbiased, pr<tspan x="711.93px " y="1277.25px ">e</tspan>cise</text><text x="301.53px" y="2653.44px" style="font-family:'SourceSans3-Roman_Medium', 'Source Sans 3', sans-serif;font-weight:200;font-size:75px;fill:#409;">unbiased, impr<tspan x="750.48px " y="2653.44px ">e</tspan>cise</text><text x="1583.27px" y="1277.25px" style="font-family:'SourceSans3-Roman_Medium', 'Source Sans 3', sans-serif;font-weight:200;font-size:75px;fill:#409;">biased, pr<tspan x="1876.37px " y="1277.25px ">e</tspan>cise</text><text x="1544.72px" y="2653.44px" style="font-family:'SourceSans3-Roman_Medium', 'Source Sans 3', sans-serif;font-weight:200;font-size:75px;fill:#409;">biased, impr<tspan x="1914.92px " y="2653.44px ">e</tspan>cise</text><path d="M1810.65,612.379l606.129,-606.129" style="fill:none;stroke:#409;stroke-width:12.5px;"/><path d="M1980.8,782.53l606.129,-606.129" style="fill:none;stroke:#409;stroke-width:12.5px;"/><path d="M2383.16,113.158l-39.774,-13.258l13.258,39.775c-0,-13.258 13.258,-26.517 26.516,-26.517Z" style="fill:#409;"/><path d="M2485.84,215.836l13.258,39.774l-39.775,-13.258c13.259,0 26.517,-13.258 26.517,-26.516Z" style="fill:#409;"/><path d="M2364.6,121.113c29.747,29.747 83.537,83.538 113.284,113.284" style="fill:none;stroke:#409;stroke-width:12.5px;"/><text x="2522.08px" y="349.299px" style="font-family:'SourceSans3-Roman_Medium', 'Source Sans 3', sans-serif;font-weight:200;font-size:75px;fill:#409;">bias</text></svg>