<?xml version="1.0" encoding="utf-8"?>
<svg xmlns="http://www.w3.org/2000/svg" viewBox="0 0 64 64" fill="#9adbe8"><path d="M 11 3 C 9.889 3 9.0019531 3.9 9.0019531 5 L 9.0019531 9 C 9.0019531 10.1 9.889 11 11 11 L 11 14 C 11 25 9.3485625 32.070703 5.2265625 40.220703 C 4.9235625 40.820703 4.9545938 41.519844 5.3085938 42.089844 C 5.6715937 42.659844 6.2878438 43 6.9648438 43 L 12 43 L 12 47 C 10.827 47.414 10.001953 48.698 10.001953 50 C 10.001953 51.654 11.329 53 13 53 L 23.890625 53 L 16.226562 62.367188 C 15.877562 62.795187 15.940188 63.423437 16.367188 63.773438 C 16.553188 63.925438 16.777 64 17 64 C 17.289 64 17.575437 63.874812 17.773438 63.632812 L 26.472656 53 L 33 53 L 33 60 C 33 60.552 33.448 61 34 61 C 34.552 61 35 60.552 35 60 L 35 53 L 41.527344 53 L 50.226562 63.632812 C 50.423562 63.874812 50.71 64 51 64 C 51.223 64 51.446813 63.925438 51.632812 63.773438 C 52.060813 63.424438 52.123438 62.795187 51.773438 62.367188 L 44.109375 53 L 54.96875 53 C 56.63975 53 58 51.654 58 50 C 58 48.698 57.151516 47.597594 55.978516 47.183594 L 55.978516 13.839844 L 55.978516 11 C 57.090516 11 58 10.1 58 9 L 58 5 C 58 3.9 57.090516 3 55.978516 3 L 54.96875 3 L 12.53125 3 L 11 3 z M 11 5 L 55.978516 5 L 55.978516 9 L 53.957031 9 L 11 9 L 11 5 z M 13 11 L 53.957031 11 L 53.957031 13.839844 C 53.957031 22.949844 51.785109 32.070703 47.662109 40.220703 L 47.320312 41 L 13.542969 41 L 11.521484 41 L 7.0957031 41 C 8.9747031 37.25 10.460484 33.3 11.521484 29.25 C 12.854484 24.22 13 19.19 13 14 L 13 11 z M 16 13 C 15.447 13 15 13.447 15 14 L 15 16 C 15 16.553 15.447 17 16 17 C 16.553 17 17 16.553 17 16 L 17 14 C 17 13.447 16.553 13 16 13 z M 21 13 C 20.447 13 20 13.447 20 14 L 20 16 C 20 16.553 20.447 17 21 17 C 21.553 17 22 16.553 22 16 L 22 14 C 22 13.447 21.553 13 21 13 z M 26 13 C 25.447 13 25 13.447 25 14 L 25 16 C 25 16.553 25.447 17 26 17 C 26.553 17 27 16.553 27 16 L 27 14 C 27 13.447 26.553 13 26 13 z M 31 13 C 30.447 13 30 13.447 30 14 L 30 16 C 30 16.553 30.447 17 31 17 C 31.553 17 32 16.553 32 16 L 32 14 C 32 13.447 31.553 13 31 13 z M 36 13 C 35.447 13 35 13.447 35 14 L 35 16 C 35 16.553 35.447 17 36 17 C 36.553 17 37 16.553 37 16 L 37 14 C 37 13.447 36.553 13 36 13 z M 41 13 C 40.447 13 40 13.447 40 14 L 40 16 C 40 16.553 40.447 17 41 17 C 41.553 17 42 16.553 42 16 L 42 14 C 42 13.447 41.553 13 41 13 z M 46 13 C 45.447 13 45 13.447 45 14 L 45 16 C 45 16.553 45.447 17 46 17 C 46.553 17 47 16.553 47 16 L 47 14 C 47 13.447 46.553 13 46 13 z M 51 13 C 50.447 13 50 13.447 50 14 L 50 16 C 50 16.553 50.447 17 51 17 C 51.553 17 52 16.553 52 16 L 52 14 C 52 13.447 51.553 13 51 13 z M 53.957031 29.279297 L 53.957031 47 L 14 47 L 14 43 L 47.320312 43 C 48.058312 43 48.724594 42.589453 49.058594 41.939453 L 49.472656 41.119141 C 51.372656 37.339141 52.886031 33.369297 53.957031 29.279297 z M 13 49 L 54.96875 49 C 55.52675 49 55.978516 49.448 55.978516 50 C 55.978516 50.552 55.52675 51 54.96875 51 L 34 51 L 13 51 C 12.442 51 12 50.552 12 50 C 12 49.448 12.442 49 13 49 z" fill="#9adbe8"/></svg>
