<?xml version="1.0" encoding="utf-8"?>
<svg xmlns="http://www.w3.org/2000/svg" viewBox="0 0 64 64" fill="#440099"><path d="M 52.220703 3.4921875 C 51.966578 3.5240625 51.723687 3.6525938 51.554688 3.8710938 L 50.328125 5.4511719 C 49.989125 5.8861719 50.066906 6.5145156 50.503906 6.8535156 C 50.685906 6.9955156 50.903188 7.0644531 51.117188 7.0644531 C 51.415188 7.0644531 51.70925 6.9327344 51.90625 6.6777344 L 53.134766 5.0976562 C 53.473766 4.6626562 53.394031 4.0343125 52.957031 3.6953125 C 52.739531 3.5263125 52.474828 3.4603125 52.220703 3.4921875 z M 32 4 C 16.547585 4 4 16.547585 4 32 C 4 47.452415 16.547585 60 32 60 C 47.452415 60 60 47.452415 60 32 C 60 16.547585 47.452415 4 32 4 z M 32 6 C 46.371585 6 58 17.628415 58 32 C 58 46.371585 46.371585 58 32 58 C 17.628415 58 6 46.371585 6 32 C 6 17.628415 17.628415 6 32 6 z M 56.15625 6.84375 C 55.9005 6.84375 55.644719 6.9412187 55.449219 7.1367188 L 54.035156 8.5507812 C 53.644156 8.9417812 53.644156 9.5738437 54.035156 9.9648438 C 54.230156 10.159844 54.486187 10.257812 54.742188 10.257812 C 54.998187 10.257812 55.253219 10.159844 55.449219 9.9648438 L 56.863281 8.5507812 C 57.254281 8.1597813 57.254281 7.5277188 56.863281 7.1367188 C 56.667781 6.9412188 56.412 6.84375 56.15625 6.84375 z M 59.640625 10.664062 C 59.386625 10.632063 59.120344 10.695734 58.902344 10.865234 L 57.322266 12.09375 C 56.886266 12.43275 56.806531 13.059094 57.144531 13.496094 C 57.342531 13.750094 57.637547 13.882812 57.935547 13.882812 C 58.149547 13.882812 58.366828 13.814828 58.548828 13.673828 L 60.128906 12.445312 C 60.564906 12.106312 60.642688 11.479969 60.304688 11.042969 C 60.135688 10.824469 59.894625 10.696062 59.640625 10.664062 z M 32 13 C 21.518545 13 13 21.518545 13 32 C 13 42.481455 21.518545 51 32 51 C 42.481455 51 51 42.481455 51 32 C 51 21.518545 42.481455 13 32 13 z M 32 15 C 41.400545 15 49 22.599455 49 32 C 49 41.400545 41.400545 49 32 49 C 22.599455 49 15 41.400545 15 32 C 15 22.599455 22.599455 15 32 15 z M 32 22 C 26.488994 22 22 26.488998 22 32 C 22 37.511002 26.488994 42 32 42 C 37.511006 42 42 37.511002 42 32 C 42 26.488998 37.511006 22 32 22 z M 32 24 C 36.430126 24 40 27.569877 40 32 C 40 36.430123 36.430126 40 32 40 C 27.569874 40 24 36.430123 24 32 C 24 27.569877 27.569874 24 32 24 z M 6.1894531 50.142578 C 5.9354531 50.110703 5.6691719 50.17475 5.4511719 50.34375 L 3.8710938 51.570312 C 3.4350937 51.909313 3.3573125 52.537609 3.6953125 52.974609 C 3.8933125 53.228609 4.1883281 53.361328 4.4863281 53.361328 C 4.7003281 53.361328 4.9166562 53.292391 5.0976562 53.150391 L 6.6777344 51.923828 C 7.1137344 51.584828 7.1934688 50.958484 6.8554688 50.521484 C 6.6864688 50.302984 6.4434531 50.174453 6.1894531 50.142578 z M 9.2578125 53.759766 C 9.0020625 53.759766 8.7462812 53.857234 8.5507812 54.052734 L 7.1367188 55.466797 C 6.7457188 55.857797 6.7457187 56.489859 7.1367188 56.880859 C 7.3317188 57.075859 7.58775 57.173828 7.84375 57.173828 C 8.09975 57.173828 8.3557812 57.075859 8.5507812 56.880859 L 9.9648438 55.466797 C 10.355844 55.075797 10.355844 54.443734 9.9648438 54.052734 C 9.7693438 53.857234 9.5135625 53.759766 9.2578125 53.759766 z M 12.757812 56.958984 C 12.503938 56.990984 12.261297 57.121344 12.091797 57.339844 L 10.865234 58.919922 C 10.527234 59.355922 10.606969 59.983266 11.042969 60.322266 C 11.225969 60.464266 11.440297 60.53125 11.654297 60.53125 C 11.953297 60.53125 12.249313 60.398531 12.445312 60.144531 L 13.671875 58.564453 C 14.009875 58.128453 13.930141 57.501109 13.494141 57.162109 C 13.276141 56.992609 13.011687 56.926984 12.757812 56.958984 z" fill="#440099"/></svg>
