<?xml version="1.0" encoding="utf-8"?>
<svg xmlns="http://www.w3.org/2000/svg" viewBox="0 0 64 64" fill="#9adbe8"><path d="M 30.267578 1.9160156 C 22.998926 1.8320003 15.714703 4.5871406 10.150391 10.150391 C -0.32260938 20.625391 -0.84698438 37.191297 8.7910156 48.279297 L 6.6152344 50.455078 C 5.8352344 51.234078 5.8352344 52.504203 6.6152344 53.283203 L 15.099609 61.769531 C 15.489609 62.159531 16.001672 62.353516 16.513672 62.353516 C 17.025672 62.353516 17.537734 62.159531 17.927734 61.769531 L 39.845703 39.851562 C 39.846703 39.850563 39.848609 39.850609 39.849609 39.849609 C 39.850609 39.848609 39.850562 39.846703 39.851562 39.845703 L 61.769531 17.929688 C 62.549531 17.149688 62.549531 15.880562 61.769531 15.101562 L 53.285156 6.6152344 C 52.506156 5.8362344 51.236031 5.8362344 50.457031 6.6152344 L 48.279297 8.7929688 C 43.081328 4.2751562 36.681095 1.9901468 30.267578 1.9160156 z M 29.945312 3.9140625 C 36.276313 3.9140625 42.616766 6.2353906 47.634766 10.900391 C 48.029766 11.265391 48.644438 11.257953 49.023438 10.876953 L 51.869141 8.0292969 L 60.355469 16.513672 L 56.111328 20.757812 L 52.576172 17.222656 C 52.185172 16.831656 51.553109 16.831656 51.162109 17.222656 C 50.771109 17.613656 50.771109 18.245719 51.162109 18.636719 L 54.697266 22.171875 L 50.455078 26.414062 L 48.333984 24.292969 C 47.942984 23.901969 47.310922 23.901969 46.919922 24.292969 C 46.528922 24.683969 46.528922 25.316031 46.919922 25.707031 L 49.042969 27.828125 L 44.798828 32.070312 L 42.677734 29.949219 C 42.286734 29.558219 41.654672 29.558219 41.263672 29.949219 C 40.872672 30.340219 40.872672 30.972281 41.263672 31.363281 L 43.384766 33.484375 L 39.142578 37.728516 L 35.605469 34.191406 C 35.214469 33.800406 34.582406 33.800406 34.191406 34.191406 C 33.800406 34.582406 33.800406 35.214469 34.191406 35.605469 L 37.728516 39.142578 L 33.484375 43.384766 L 31.363281 41.263672 C 30.972281 40.872672 30.340219 40.872672 29.949219 41.263672 C 29.558219 41.654672 29.558219 42.286734 29.949219 42.677734 L 32.070312 44.798828 L 27.828125 49.042969 L 25.707031 46.919922 C 25.316031 46.528922 24.683969 46.528922 24.292969 46.919922 C 23.901969 47.310922 23.901969 47.942984 24.292969 48.333984 L 26.414062 50.455078 L 22.171875 54.697266 L 18.636719 51.162109 C 18.245719 50.771109 17.613656 50.771109 17.222656 51.162109 C 16.831656 51.553109 16.831656 52.185172 17.222656 52.576172 L 20.757812 56.111328 L 16.515625 60.355469 L 8.0292969 51.869141 L 10.876953 49.023438 C 11.257953 48.642437 11.267391 48.028766 10.900391 47.634766 C 1.3353906 37.345766 1.6274531 21.502453 11.564453 11.564453 C 16.655453 6.4734531 23.294312 3.9140625 29.945312 3.9140625 z M 29.4375 5.9570312 C 28.187391 5.9839375 26.940047 6.1052187 25.716797 6.3242188 C 25.172797 6.4222187 24.811203 6.940375 24.908203 7.484375 C 24.995203 7.969375 25.416578 8.3085937 25.892578 8.3085938 C 25.951578 8.3085938 26.008359 8.3039688 26.068359 8.2929688 C 27.564359 8.0259688 29.092906 7.9079375 30.628906 7.9609375 C 31.156906 7.9509375 31.642203 7.5432344 31.658203 6.9902344 C 31.675203 6.4382344 31.2405 5.9779375 30.6875 5.9609375 C 30.271 5.9489375 29.854203 5.9480625 29.4375 5.9570312 z M 20.615234 7.9140625 C 20.485328 7.9163906 20.354766 7.9435 20.228516 8 C 17.526516 9.197 15.086469 10.872516 12.980469 12.978516 C 10.609469 15.348516 8.7939375 18.123609 7.5859375 21.224609 C 7.3859375 21.739609 7.6402969 22.319531 8.1542969 22.519531 C 8.2742969 22.566531 8.3965781 22.587891 8.5175781 22.587891 C 8.9175781 22.587891 9.2952187 22.346172 9.4492188 21.951172 C 10.556219 19.108172 12.219578 16.565578 14.392578 14.392578 C 16.324578 12.462578 18.561109 10.926125 21.037109 9.828125 C 21.542109 9.604125 21.769875 9.0147656 21.546875 8.5097656 C 21.379625 8.1310156 21.004953 7.9070781 20.615234 7.9140625 z M 29.410156 13.978516 C 25.481531 14.107016 21.602219 15.669719 18.636719 18.636719 C 12.704719 24.568719 12.389922 34.158656 17.919922 40.472656 C 18.101922 40.680656 18.361672 40.8035 18.638672 40.8125 C 18.650672 40.8135 18.660875 40.814453 18.671875 40.814453 C 18.936875 40.814453 19.191906 40.709484 19.378906 40.521484 L 28.535156 31.365234 C 28.926156 30.974234 28.926156 30.342172 28.535156 29.951172 C 28.145156 29.561172 28.145156 28.927109 28.535156 28.537109 C 28.925156 28.147109 29.557219 28.145156 29.949219 28.535156 C 30.340219 28.926156 30.972281 28.926156 31.363281 28.535156 L 40.519531 19.380859 C 40.714531 19.185859 40.8225 18.916625 40.8125 18.640625 C 40.8035 18.364625 40.680656 18.103875 40.472656 17.921875 C 37.316656 15.155875 33.338781 13.850016 29.410156 13.978516 z M 29.941406 15.96875 C 32.888406 15.96875 35.840266 16.890047 38.322266 18.748047 L 30.535156 26.535156 C 29.421156 26.004156 28.042141 26.199094 27.119141 27.121094 C 26.198141 28.044094 26.004156 29.420156 26.535156 30.535156 L 18.748047 38.322266 C 14.623047 32.815266 15.114781 24.985781 20.050781 20.050781 C 22.761781 17.339781 26.347406 15.96875 29.941406 15.96875 z" fill="#9adbe8"/></svg>
