<?xml version="1.0" encoding="utf-8"?>
<svg xmlns="http://www.w3.org/2000/svg" viewBox="0 0 64 64" fill="#9adbe8"><path d="M 49 5 C 42.382813 5 37 10.382813 37 17 C 37 23.277344 41.851563 28.4375 48 28.949219 L 48 34.585938 L 45.707031 32.292969 C 45.316406 31.902344 44.683594 31.902344 44.292969 32.292969 C 43.902344 32.683594 43.902344 33.316406 44.292969 33.707031 L 48.234375 37.648438 C 47.730469 37.773438 47.257813 38.015625 46.878906 38.390625 L 38.394531 46.878906 C 37.828125 47.445313 37.515625 48.199219 37.515625 49 C 37.515625 49.800781 37.828125 50.554688 38.394531 51.121094 L 46.878906 59.605469 C 47.445313 60.171875 48.199219 60.484375 49 60.484375 C 49.804688 60.484375 50.554688 60.171875 51.121094 59.605469 L 59.609375 51.121094 C 60.175781 50.554688 60.484375 49.800781 60.484375 49 C 60.484375 48.199219 60.175781 47.445313 59.609375 46.878906 L 51.121094 38.394531 C 50.742188 38.015625 50.269531 37.777344 49.765625 37.652344 L 53.707031 33.707031 C 54.097656 33.316406 54.097656 32.6875 53.707031 32.296875 C 53.316406 31.902344 52.683594 31.902344 52.292969 32.296875 L 50 34.585938 L 50 28.949219 C 56.148438 28.4375 61 23.277344 61 17 C 61 10.382813 55.617188 5 49 5 Z M 37 17 C 37 16.871094 36.972656 16.738281 36.921875 16.617188 C 36.871094 16.496094 36.800781 16.386719 36.707031 16.292969 L 32.707031 12.292969 C 32.316406 11.902344 31.683594 11.902344 31.292969 12.292969 C 30.902344 12.683594 30.902344 13.316406 31.292969 13.707031 L 33.585938 16 L 26 16 L 26 9 C 26 7.347656 24.652344 6 23 6 L 7 6 C 5.347656 6 4 7.347656 4 9 L 4 25 C 4 26.652344 5.347656 28 7 28 L 23 28 C 24.652344 28 26 26.652344 26 25 L 26 18 L 33.585938 18 L 31.292969 20.292969 C 30.902344 20.683594 30.902344 21.316406 31.292969 21.707031 C 31.488281 21.902344 31.742188 22 32 22 C 32.257813 22 32.511719 21.902344 32.707031 21.707031 L 36.707031 17.707031 C 36.800781 17.613281 36.871094 17.503906 36.921875 17.382813 C 36.972656 17.261719 37 17.128906 37 17 Z M 15 28 C 14.871094 28 14.738281 28.027344 14.617188 28.078125 C 14.496094 28.128906 14.386719 28.199219 14.292969 28.292969 L 10.292969 32.292969 C 9.902344 32.683594 9.902344 33.316406 10.292969 33.707031 C 10.683594 34.097656 11.316406 34.097656 11.707031 33.707031 L 14 31.414063 L 14 38 C 14 38.085938 14.027344 38.164063 14.046875 38.242188 C 13.730469 38.414063 13.460938 38.667969 13.269531 38.996094 L 4 55.027344 C 3.640625 55.652344 3.640625 56.398438 4 57.027344 C 4.363281 57.652344 5.007813 58 5.734375 58 L 24.265625 58 C 24.988281 58 25.636719 57.652344 26 57.027344 C 26.359375 56.398438 26.359375 55.652344 26 55.027344 L 16.730469 38.996094 C 16.539063 38.667969 16.269531 38.414063 15.953125 38.242188 C 15.972656 38.164063 16 38.085938 16 38 L 16 31.414063 L 18.292969 33.707031 C 18.488281 33.902344 18.742188 34 19 34 C 19.257813 34 19.511719 33.902344 19.707031 33.707031 C 20.097656 33.316406 20.097656 32.683594 19.707031 32.292969 L 15.707031 28.292969 C 15.613281 28.199219 15.503906 28.128906 15.382813 28.078125 C 15.261719 28.027344 15.128906 28 15 28 Z M 49 7 C 54.515625 7 59 11.484375 59 17 C 59 22.515625 54.515625 27 49 27 C 43.484375 27 39 22.515625 39 17 C 39 11.484375 43.484375 7 49 7 Z M 7 8 L 23 8 C 23.550781 8 24 8.449219 24 9 L 24 25 C 24 25.550781 23.550781 26 23 26 L 7 26 C 6.449219 26 6 25.550781 6 25 L 6 9 C 6 8.449219 6.449219 8 7 8 Z M 49 39.515625 C 49.269531 39.515625 49.519531 39.621094 49.707031 39.808594 L 58.191406 48.296875 C 58.378906 48.484375 58.484375 48.734375 58.484375 49 C 58.484375 49.269531 58.378906 49.519531 58.191406 49.707031 L 49.703125 58.191406 C 49.328125 58.570313 48.671875 58.570313 48.292969 58.191406 L 39.808594 49.707031 C 39.617188 49.519531 39.515625 49.269531 39.515625 49 C 39.515625 48.730469 39.617188 48.480469 39.808594 48.292969 L 48.292969 39.808594 C 48.480469 39.621094 48.730469 39.515625 49 39.515625 Z M 15 40 L 24.265625 56.027344 L 5.734375 56.027344 Z M 25 47 C 24.449219 47 24 47.449219 24 48 L 24 50 C 24 50.550781 24.449219 51 25 51 C 25.550781 51 26 50.550781 26 50 L 26 48 C 26 47.449219 25.550781 47 25 47 Z M 30 47 C 29.449219 47 29 47.449219 29 48 L 29 50 C 29 50.550781 29.449219 51 30 51 C 30.550781 51 31 50.550781 31 50 L 31 48 C 31 47.449219 30.550781 47 30 47 Z M 35 47 C 34.449219 47 34 47.449219 34 48 L 34 50 C 34 50.550781 34.449219 51 35 51 C 35.550781 51 36 50.550781 36 50 L 36 48 C 36 47.449219 35.550781 47 35 47 Z" fill="#9adbe8"/></svg>
